<svg id="visual" viewBox="0 0 900 600" width="900" height="600" xmlns="http://www.w3.org/2000/svg" xmlns:xlink="http://www.w3.org/1999/xlink" version="1.1"><rect width="900" height="600" fill="#071016"></rect><g><g transform="translate(519 297)"><path d="M0 -13.1L12.5 -4.1L7.7 10.6L-7.7 10.6L-12.5 -4.1Z" fill="#297EA6"></path></g><g transform="translate(204 164)"><path d="M0 -2L1.9 -0.6L1.2 1.6L-1.2 1.6L-1.9 -0.6Z" fill="#297EA6"></path></g><g transform="translate(623 342)"><path d="M0 -7L6.7 -2.2L4.1 5.7L-4.1 5.7L-6.7 -2.2Z" fill="#297EA6"></path></g><g transform="translate(203 123)"><path d="M0 -1L1 -0.3L0.6 0.8L-0.6 0.8L-1 -0.3Z" fill="#297EA6"></path></g><g transform="translate(304 525)"><path d="M0 -5L4.8 -1.5L2.9 4L-2.9 4L-4.8 -1.5Z" fill="#297EA6"></path></g><g transform="translate(410 46)"><path d="M0 -8L7.6 -2.5L4.7 6.5L-4.7 6.5L-7.6 -2.5Z" fill="#297EA6"></path></g><g transform="translate(539 137)"><path d="M0 -9L8.6 -2.8L5.3 7.3L-5.3 7.3L-8.6 -2.8Z" fill="#297EA6"></path></g><g transform="translate(831 366)"><path d="M0 -7L6.7 -2.2L4.1 5.7L-4.1 5.7L-6.7 -2.2Z" fill="#297EA6"></path></g><g transform="translate(731 498)"><path d="M0 -5L4.8 -1.5L2.9 4L-2.9 4L-4.8 -1.5Z" fill="#297EA6"></path></g><g transform="translate(12 456)"><path d="M0 -9L8.6 -2.8L5.3 7.3L-5.3 7.3L-8.6 -2.8Z" fill="#297EA6"></path></g><g transform="translate(58 114)"><path d="M0 -5L4.8 -1.5L2.9 4L-2.9 4L-4.8 -1.5Z" fill="#297EA6"></path></g><g transform="translate(668 344)"><path d="M0 -10L9.5 -3.1L5.9 8.1L-5.9 8.1L-9.5 -3.1Z" fill="#297EA6"></path></g><g transform="translate(220 355)"><path d="M0 -8L7.6 -2.5L4.7 6.5L-4.7 6.5L-7.6 -2.5Z" fill="#297EA6"></path></g><g transform="translate(511 194)"><path d="M0 -5L4.8 -1.5L2.9 4L-2.9 4L-4.8 -1.5Z" fill="#297EA6"></path></g><g transform="translate(431 423)"><path d="M0 -10L9.5 -3.1L5.9 8.1L-5.9 8.1L-9.5 -3.1Z" fill="#297EA6"></path></g><g transform="translate(707 557)"><path d="M0 -7L6.7 -2.2L4.1 5.7L-4.1 5.7L-6.7 -2.2Z" fill="#297EA6"></path></g><g transform="translate(556 100)"><path d="M0 -3L2.9 -0.9L1.8 2.4L-1.8 2.4L-2.9 -0.9Z" fill="#297EA6"></path></g><g transform="translate(293 345)"><path d="M0 -11L10.5 -3.4L6.5 8.9L-6.5 8.9L-10.5 -3.4Z" fill="#297EA6"></path></g><g transform="translate(96 493)"><path d="M0 -3L2.9 -0.9L1.8 2.4L-1.8 2.4L-2.9 -0.9Z" fill="#297EA6"></path></g><g transform="translate(849 138)"><path d="M0 -8L7.6 -2.5L4.7 6.5L-4.7 6.5L-7.6 -2.5Z" fill="#297EA6"></path></g><g transform="translate(815 448)"><path d="M0 -5L4.8 -1.5L2.9 4L-2.9 4L-4.8 -1.5Z" fill="#297EA6"></path></g></g></svg>